<?xml version="1.0" encoding="UTF-8" standalone="no"?>
<svg
   height="24"
   viewBox="0 -960 960 960"
   width="24"
   version="1.1"
   id="svg1"
   xmlns="http://www.w3.org/2000/svg">

  <path
     d="M 365.26015,-309.26015 480,-424 594.73985,-309.26015 a 41.380104,41.380104 0 0 0 58.5203,0 39.638062,39.638062 87.423117 0 0 -2.5203,-56 L 536,-480 650.73985,-594.73985 a 41.380104,41.380104 90 0 0 0,-58.5203 39.638062,39.638062 177.42312 0 0 -56,2.5203 L 480,-536 365.26015,-650.73985 a 41.380104,41.380104 0 0 0 -58.5203,0 39.638062,39.638062 87.423117 0 0 2.5203,56 L 424,-480 309.26015,-365.26015 a 41.380104,41.380104 90 0 0 0,58.5203 39.638062,39.638062 177.42312 0 0 56,-2.5203 z M 480,-80 c -55.33333,0 -107.33333,-10.5 -156,-31.5 -48.66667,-21 -91,-49.5 -127,-85.5 -36,-36 -64.5,-78.33333 -85.5,-127 -21,-48.66667 -31.5,-100.66667 -31.5,-156 0,-55.33333 10.5,-107.33333 31.5,-156 21,-48.66667 49.5,-91 85.5,-127 36,-36 78.33333,-64.5 127,-85.5 48.66667,-21 100.66667,-31.5 156,-31.5 55.33333,0 107.33333,10.5 156,31.5 48.66667,21 91,49.5 127,85.5 36,36 64.5,78.33333 85.5,127 21,48.66667 31.5,100.66667 31.5,156 0,55.33333 -10.5,107.33333 -31.5,156 -21,48.66667 -49.5,91 -85.5,127 -36,36 -78.33333,64.5 -127,85.5 -48.66667,21 -100.66667,31.5 -156,31.5 z m 0,-80 c 89.33333,0 165,-31 227,-93 62,-62 93,-137.66667 93,-227 0,-89.33333 -31,-165 -93,-227 -62,-62 -137.66667,-93 -227,-93 -89.33333,0 -165,31 -227,93 -62,62 -93,137.66667 -93,227 0,89.33333 31,165 93,227 62,62 137.66667,93 227,93 z"
     id="path1"
     />
</svg>
